<?xml version="1.0" encoding="utf-8"?>
<!-- Generator: Adobe Illustrator 19.1.0, SVG Export Plug-In . SVG Version: 6.00 Build 0)  -->
<svg version="1.1" id="Layer_1" xmlns="http://www.w3.org/2000/svg" xmlns:xlink="http://www.w3.org/1999/xlink" x="0px" y="0px"
	 viewBox="0 0 792 204.4" style="enable-background:new 0 0 792 204.4;" xml:space="preserve">
<style type="text/css">
	.st0{fill:#FFFFFF;}
</style>
<path class="st0" d="M572.2,7.3L567,28.7h17.4l-4.3,18h-17.4l-2.5,9.7c-0.6,2.5-1,4.3-1.3,5.7c-0.5,2.9-1.9,6.4,3.1,8.9
	c2.5,1.2,9.5,1,14.9,0.4l-9.4,18.4l-8,0.3h-7.3c-7.7,0-13.2-1.8-16.4-4.9c-2.5-2.4-3.7-6.2-3.7-11.3c0-2.9,0.5-6.9,1.6-11.9
	l3.9-15.2h-10l4.2-18H542l3.2-13.9L572.2,7.3z"/>
<path class="st0" d="M486.6,27.1c6.9,0,11.5,0.5,15.8,1.5c4.3,1,7.7,2.5,10.3,4.7c4.3,3.5,7.4,8.8,7.4,16.3c0,6.3-1.5,12.4-4.3,18.3
	c-4.5,9.6-11.3,15-19.3,18.8c-6.3,3-18.3,5.1-26.5,4.8c-8.2-0.3-11.7-0.8-15.3-1.6c-3.5-0.8-7.3-2.5-9.9-4.5
	c-4.6-3.4-7.7-8.1-7.7-15.6c0-6.7,0.9-12,3.7-18.6c2.6-6.1,7.4-11.7,11.9-15.1c4.1-3.1,8.8-5.3,14.1-6.7
	C472.1,28.1,478.2,27.2,486.6,27.1z M482.4,44.1c-5.8,0-10.9,2.7-14,7.1c-2.6,3.6-4.4,8.3-4.4,13c0,6.7,3.6,10.1,10.9,10.1
	c5.7,0,10.8-2.8,13.9-7.2c2.6-3.6,4.5-8.6,4.5-13.2C493.2,47.3,489.6,44.2,482.4,44.1z"/>
<g>
	<path class="st0" d="M226.1,28.7l-14.8,61h-25.3l14.8-61H226.1z"/>
	<path class="st0" d="M221.8,0c3.4,0.2,5.9,1.3,7.6,3.3c1.7,2,1.9,4.7,1.8,7.2c-0.6,4.4-2.2,7-5.7,9.7c-4,2.7-7.2,3.8-12.6,3.3
		c-3.4-0.3-6.3-1.8-7.7-3.6c-1.4-1.7-2.1-4.4-1.8-7.1c0.3-2.8,1.8-6.1,5.3-9C212.1,0.9,217.8-0.2,221.8,0z"/>
</g>
<path class="st0" d="M261.2,28.7L260,34c5.3-3.4,8.9-4.8,12.7-5.8c4.1-1.1,7.3-1.3,12.5-1.1c6.2,0.2,10.5,1.5,14.5,4.2
	c3.5,2.6,5.7,5.9,6.1,10.9c0.1,3.5-1.1,8.7-1.1,8.7l-9.4,38.9h-24.9l7.4-30.6c0.7-3.5,1.2-5.3,1.3-6.8c0.5-4.9-3.3-6.2-8.6-6.2
	c-4.5,0-9.9,1.5-12.5,4.3c-2.2,2.3-3.5,5.8-5.1,12.4l-6.5,26.9h-25l14.8-61H261.2z"/>
<polygon class="st0" points="24.2,30.8 183.9,30.7 180.5,47.2 "/>
<polygon class="st0" points="0,33.1 178.9,52.7 175.7,67.2 "/>
<path class="st0" d="M504.8,103.5l-7.2,34c3-2.6,5.7-4.4,8-5.4c2.4-1,5-1.5,7.9-1.5c4.2,0,7.5,1.1,10,3.2c2.4,2.1,3.7,5.1,3.7,8.8
	c0,1.6-0.3,3.9-1,6.8l-6.4,30.1h-8l6.4-29.9c0.4-1.8,0.6-3.3,0.6-4.5c0-2.4-0.8-4.3-2.3-5.6c-1.5-1.4-3.6-2-6.2-2
	c-2,0-4.1,0.4-6.2,1.3c-2.1,0.8-3.8,2-5.2,3.4c-1.9,1.9-3.2,4.5-3.9,7.7l-6.3,29.7h-8l16.2-76H504.8z"/>
<path class="st0" d="M562.1,130.7c5.7,0,10.2,1.6,13.4,4.7c3.2,3.1,4.8,7.5,4.8,13.2c0,3.8-0.6,7.6-1.9,11.4
	c-1.3,3.8-3.1,7.2-5.3,10.1c-5.5,7-12.6,10.5-21.4,10.5c-5.7,0-10.2-1.6-13.4-4.7c-3.2-3.1-4.8-7.5-4.8-13.1c0-3.8,0.6-7.6,1.9-11.5
	c1.3-3.8,3.1-7.2,5.3-10.1C546.1,134.3,553.3,130.8,562.1,130.7z M560.6,137.5c-6.3,0-11.3,3.4-14.9,10.2c-2.3,4.3-3.5,8.9-3.5,13.6
	c0,4,1,7.1,3,9.3c1.9,2,4.5,3,7.7,3c6.3,0,11.3-3.4,14.9-10.2c2.3-4.3,3.5-8.9,3.5-13.5c0-4-0.9-7-2.8-9.1
	C566.8,138.7,564.1,137.6,560.6,137.5z"/>
<path class="st0" d="M622.6,139l-7.9,4.5c-0.1-2.2-0.7-3.8-1.9-4.8c-1.2-1-3-1.5-5.4-1.5c-2.7,0-5,0.8-6.8,2.3
	c-1.9,1.5-2.8,3.4-2.8,5.6c0,1.4,0.6,2.6,1.9,3.4c1.2,0.8,3.7,1.7,7.3,2.7c4.2,1.1,7.1,2.4,8.7,4c1.6,1.6,2.4,3.9,2.4,7
	c0,4.3-1.9,8.3-5.6,12c-4.4,4.3-10,6.4-16.8,6.4c-4.5,0-7.9-1-10.3-3c-2.4-2-3.9-5.3-4.7-9.9l8.3-3.2c0.4,6.4,3.3,9.5,9,9.5
	c3.7,0,6.7-1.2,9-3.7c1.8-1.9,2.7-4,2.7-6.4c0-1.4-0.6-2.6-1.8-3.4c-1.2-0.8-3.7-1.8-7.3-2.9c-3-0.8-5.1-1.6-6.4-2.4
	c-1.3-0.7-2.3-1.7-3.1-3c-1-1.6-1.5-3.3-1.5-5.3c0-1.8,0.5-3.8,1.5-5.8c1-2,2.3-3.8,3.9-5.4c3.6-3.4,8.2-5.1,13.9-5.1
	c3.9,0,6.9,0.7,9,2C619.8,133.9,621.5,136.1,622.6,139z"/>
<path class="st0" d="M646.9,116.2l-3.3,15.5h13.4l-1.4,6.9h-13.4l-4.9,23c-0.7,3.1-1,5.4-1,6.7c0,3.6,2.3,5.4,7,5.4
	c1.5,0,3.4-0.4,5.8-1.2l-2.1,6.7c-3.1,0.9-5.7,1.3-7.7,1.3c-3.6,0-6.4-0.8-8.3-2.4c-1.9-1.6-2.8-4-2.8-7.1c0-2.5,0.4-5.7,1.3-9.6
	l4.8-22.7h-7.7l1.5-6.9h7.7l2.6-12.2L646.9,116.2z"/>
<path class="st0" d="M671.9,131.7l-10.2,47.8h-8l10.2-47.8H671.9z M672.6,107.4c1.3,0,2.3,0.4,3.1,1.2c0.8,0.8,1.2,1.9,1.2,3.1
	c0,1.7-0.7,3.2-2,4.6c-1.4,1.4-2.9,2-4.6,2c-1.2,0-2.3-0.4-3.1-1.2c-0.8-0.8-1.2-1.9-1.2-3.1c0-1.7,0.7-3.3,2-4.6
	C669.4,108.1,670.9,107.4,672.6,107.4z"/>
<path class="st0" d="M692.6,131.7l-1.2,5.7c3-2.6,5.7-4.4,8-5.4c2.4-1,5-1.5,7.9-1.5c4.2,0,7.5,1.1,10,3.2c2.4,2.1,3.7,5.1,3.7,8.8
	c0,1.6-0.3,3.9-1,6.8l-6.4,30.1h-8l6.4-29.9c0.4-1.8,0.6-3.3,0.6-4.5c0-2.4-0.8-4.3-2.3-5.6c-1.5-1.4-3.6-2-6.2-2
	c-2,0-4.1,0.4-6.2,1.3c-2.1,0.8-3.8,2-5.2,3.4c-1.9,1.9-3.2,4.5-3.9,7.7l-6.3,29.7h-8l10.2-47.8H692.6z"/>
<path class="st0" d="M777.2,131.7L767,179.5c-1.4,6.4-3.8,11.6-7.2,15.6c-2.6,3-5.7,5.3-9.3,6.9c-3.5,1.6-7.1,2.4-10.5,2.4
	c-4.7,0-8.8-1.3-12.2-4c-1.4-1.1-2.5-2.3-3.3-3.7c-0.8-1.3-1.6-3.3-2.3-5.8l7.8-5.1c0.8,7.8,4.6,11.8,11.4,11.8c5.1,0,9.4-2.3,13-7
	c2.2-2.8,3.9-7,5-12.6l1-4.4c-5.3,4.6-10.8,6.9-16.4,6.9c-4.1,0-7.7-1.3-10.8-3.9c-3.9-3.3-5.8-7.9-5.8-14.1c0-3.8,0.6-7.6,1.9-11.4
	c1.3-3.8,3.1-7.1,5.3-10c2.5-3.3,5.7-5.9,9.3-7.8c3.7-1.9,7.4-2.8,11-2.8c2.8,0,5.2,0.6,7.3,1.7c2.1,1.1,4,2.9,5.8,5.3l1.2-5.8
	H777.2z M754.5,137.5c-6.3,0-11.3,3.4-14.9,10.2c-2.3,4.3-3.5,8.9-3.5,13.6c0,4.1,1,7.2,3,9.4c1.9,2,4.5,3,7.8,3
	c6.3,0,11.3-3.4,14.9-10.2c2.3-4.3,3.5-8.8,3.5-13.6c0-4-0.9-7-2.8-9.1C760.6,138.7,758,137.6,754.5,137.5z"/>
<path class="st0" d="M320.5,28.7h25l-1,4.4c4.9-2.8,6.8-3.8,9.9-4.7c5.2-1.4,9-1.5,12.8-1.4c4.9,0.2,7.6,1,10.9,2.4
	c2.4,1.4,4.4,2.7,6.7,6c6.1-4,10.2-5.9,14.3-7c4.3-1.2,8.3-1.4,13-1.4c6.5,0,11.6,1.5,15,4.1c3.3,2.6,6.1,6.4,6.1,11.6
	c0.1,2.6-1,7.3-1,7.3l-9.6,39.7h-25l7.6-32.2c0,0,0.8-3.7,1.1-5.4c0.6-3.6-2.1-5.8-7.1-6c-4.7-0.1-8.8,0.9-11.6,4.3
	c-1.9,2.2-2.5,4.3-4.2,10.1l-6.9,29.3h-24.9c0,0,7.2-29.9,7.7-32.3c0.2-1.2,0.8-3.5,1-5.3c0.6-3.8-2.4-6-6.9-6.1
	c-4.2,0-7.7,1.5-10.2,3.7c-3.5,3.1-4.5,8.1-6.1,13.5l-6.4,26.6h-24.9L320.5,28.7z"/>
<path class="st0" d="M747.4,28.7l-1.2,5.3c5.3-3.4,8.9-4.8,12.7-5.8c4.1-1.1,7.3-1.3,12.5-1.1c6.2,0.2,10.5,1.5,14.5,4.2
	c3.5,2.6,5.7,5.9,6.1,10.9c0.1,3.5-1.1,8.7-1.1,8.7l-9.4,38.9h-24.9l7.4-30.6c0.7-3.5,1.2-5.3,1.3-6.8c0.5-4.9-3.3-6.2-8.6-6.2
	c-4.5,0-9.9,1.5-12.5,4.3c-2.2,2.3-3.5,5.8-5.1,12.4l-6.5,26.9h-25l14.8-61H747.4z"/>
<g>
	<path class="st0" d="M622.2,28.7l-14.8,61H582l14.8-61H622.2z"/>
	<path class="st0" d="M617.9,0c3.4,0.2,5.9,1.3,7.6,3.3c1.7,2,1.9,4.7,1.8,7.2c-0.6,4.4-2.2,7-5.7,9.7c-4,2.7-7.2,3.8-12.6,3.3
		c-3.4-0.3-6.3-1.8-7.7-3.6c-1.4-1.7-2.1-4.4-1.8-7.1c0.3-2.8,1.8-6.1,5.3-9C608.3,0.9,613.9-0.2,617.9,0z"/>
</g>
<path class="st0" d="M672.9,27c6.9,0,11.5,0.5,15.8,1.5c4.3,1,7.7,2.5,10.3,4.7c4.3,3.5,7.3,8.8,7.3,16.3c0,6.3-1.5,12.4-4.3,18.3
	c-4.5,9.6-11.3,15-19.3,18.8c-6.3,3-18.3,5.1-26.5,4.8c-8.2-0.3-11.7-0.8-15.3-1.6c-3.5-0.8-7.3-2.5-9.9-4.5
	c-4.6-3.4-7.7-8.1-7.7-15.6c0-6.7,0.9-12,3.7-18.6c2.6-6.1,7.4-11.7,11.9-15.1c4.1-3.1,8.8-5.3,14.1-6.7C658.4,28,664.5,27,672.9,27
	z M668.6,44c-5.8,0-10.9,2.7-14,7.1c-2.6,3.6-4.4,8.3-4.4,13c0,6.7,3.6,10.1,10.9,10.1c5.7,0,10.8-2.8,14-7.2
	c2.6-3.6,4.5-8.6,4.5-13.2C679.5,47.1,675.8,44.1,668.6,44z"/>
</svg>
