<?xml version="1.0" encoding="utf-8"?>
<!-- Generator: Adobe Illustrator 15.0.2, SVG Export Plug-In  -->
<!DOCTYPE svg PUBLIC "-//W3C//DTD SVG 1.1//EN" "http://www.w3.org/Graphics/SVG/1.1/DTD/svg11.dtd" [
	<!ENTITY ns_flows "http://ns.adobe.com/Flows/1.0/">
]>
<svg version="1.1"
	 xmlns="http://www.w3.org/2000/svg" xmlns:xlink="http://www.w3.org/1999/xlink" xmlns:a="http://ns.adobe.com/AdobeSVGViewerExtensions/3.0/"
	 x="0px" y="0px" width="191px" height="219px" viewBox="-0.815 -0.277 191 219" enable-background="new -0.815 -0.277 191 219"
	 xml:space="preserve">
<defs>
</defs>
<polygon fill="#010101" points="94.722,164.563 1.422,110.187 94.722,55.801 188.034,110.187 "/>
<path fill="#FFFFFF" d="M94.722,165.985c-0.247,0-0.495-0.063-0.717-0.193L0.706,111.415C0.27,111.161,0,110.691,0,110.187
	c0-0.506,0.27-0.976,0.706-1.229l93.299-54.385c0.444-0.262,0.989-0.262,1.434,0l93.313,54.385c0.436,0.253,0.705,0.723,0.705,1.229
	c0,0.505-0.27,0.974-0.705,1.228l-93.313,54.377C95.216,165.922,94.969,165.985,94.722,165.985z M4.247,110.187l90.475,52.728
	l90.486-52.728L94.722,57.448L4.247,110.187z"/>
<polygon fill="#FCB342" points="94.94,164.563 1.646,110.187 1.646,55.801 94.94,110.187 "/>
<path fill="#FFFFFF" d="M94.94,165.985c-0.248,0-0.495-0.063-0.717-0.193L0.929,111.415c-0.436-0.254-0.706-0.723-0.706-1.228
	V55.801c0-0.508,0.272-0.98,0.714-1.233c0.443-0.25,0.985-0.253,1.425,0.006l93.294,54.385c0.436,0.253,0.705,0.723,0.705,1.229
	v54.376c0,0.508-0.272,0.98-0.714,1.234C95.429,165.922,95.184,165.985,94.94,165.985z M3.068,109.369l90.449,52.719v-51.086
	L3.068,58.276V109.369z"/>
<polygon fill="#FCB342" points="188.253,110.187 94.94,164.563 94.94,110.187 188.253,55.801 "/>
<path fill="#FFFFFF" d="M94.94,165.985c-0.245,0-0.489-0.063-0.708-0.188c-0.442-0.254-0.714-0.727-0.714-1.234v-54.376
	c0-0.506,0.27-0.976,0.706-1.229l93.313-54.385c0.443-0.259,0.984-0.256,1.426-0.006c0.441,0.253,0.713,0.726,0.713,1.233v54.386
	c0,0.505-0.27,0.974-0.705,1.228l-93.313,54.377C95.435,165.922,95.187,165.985,94.94,165.985z M96.362,111.002v51.086
	l90.469-52.719V58.276L96.362,111.002z"/>
<polygon fill="#FCB342" points="94.94,217.243 1.646,162.862 1.646,108.486 94.94,162.862 "/>
<path fill="#FFFFFF" d="M94.94,218.665c-0.248,0-0.495-0.064-0.717-0.193L0.929,164.09c-0.436-0.252-0.706-0.723-0.706-1.229
	v-54.375c0-0.509,0.272-0.981,0.714-1.234c0.443-0.25,0.985-0.252,1.425,0.006l93.294,54.377c0.436,0.252,0.705,0.723,0.705,1.227
	v54.381c0,0.508-0.272,0.98-0.714,1.232C95.429,218.6,95.184,218.665,94.94,218.665z M3.068,162.045l90.449,52.721V163.68
	L3.068,110.961V162.045z"/>
<polygon fill="#FCB342" points="188.253,162.862 94.94,217.243 94.94,162.862 188.253,108.486 "/>
<path fill="#FFFFFF" d="M94.94,218.665c-0.245,0-0.489-0.064-0.708-0.189c-0.442-0.252-0.714-0.725-0.714-1.232v-54.381
	c0-0.504,0.27-0.975,0.706-1.227l93.313-54.377c0.443-0.258,0.984-0.256,1.426-0.006c0.441,0.253,0.713,0.726,0.713,1.234v54.375
	c0,0.506-0.27,0.977-0.705,1.229l-93.313,54.381C95.435,218.6,95.187,218.665,94.94,218.665z M96.362,163.68v51.086l90.469-52.721
	v-51.084L96.362,163.68z"/>
<polygon fill="#FEC66E" points="94.94,110.187 1.646,55.801 94.94,1.423 188.253,55.801 "/>
<path fill="#FFFFFF" d="M94.94,111.608c-0.248,0-0.495-0.063-0.717-0.193L0.929,57.029c-0.436-0.253-0.706-0.723-0.706-1.229
	c0-0.505,0.27-0.975,0.706-1.228l93.294-54.38c0.444-0.258,0.989-0.258,1.434,0l93.313,54.38c0.436,0.253,0.705,0.723,0.705,1.228
	c0,0.506-0.27,0.976-0.705,1.229l-93.313,54.385C95.435,111.545,95.187,111.608,94.94,111.608z M4.47,55.801l90.47,52.738
	l90.487-52.738L94.94,3.069L4.47,55.801z"/>
</svg>
