<?xml version="1.0" encoding="utf-8"?>
<!-- Generator: Adobe Illustrator 15.0.2, SVG Export Plug-In  -->
<!DOCTYPE svg PUBLIC "-//W3C//DTD SVG 1.1//EN" "http://www.w3.org/Graphics/SVG/1.1/DTD/svg11.dtd" [
	<!ENTITY ns_flows "http://ns.adobe.com/Flows/1.0/">
]>
<svg version="1.1"
	 xmlns="http://www.w3.org/2000/svg" xmlns:xlink="http://www.w3.org/1999/xlink" xmlns:a="http://ns.adobe.com/AdobeSVGViewerExtensions/3.0/"
	 x="0px" y="0px" width="191px" height="219px" viewBox="-0.315 -0.095 191 219" enable-background="new -0.315 -0.095 191 219"
	 xml:space="preserve">
<defs>
</defs>
<polygon fill="#010101" points="141.828,136.182 95.112,163.202 95.112,109.177 141.828,82.158 "/>
<path fill="#FFFFFF" d="M95.112,164.624c-0.246,0-0.489-0.063-0.711-0.189c-0.44-0.254-0.711-0.725-0.711-1.231v-54.024
	c0-0.508,0.271-0.977,0.71-1.231l46.716-27.019c0.441-0.256,0.981-0.254,1.425-0.001c0.439,0.254,0.711,0.724,0.711,1.232v54.024
	c0,0.508-0.271,0.977-0.71,1.229l-46.716,27.021C95.605,164.559,95.359,164.624,95.112,164.624z M96.535,109.998v50.737
	l43.871-25.373V84.624L96.535,109.998z"/>
<polygon fill="#77C36E" points="94.94,163.389 48.223,136.37 48.223,82.341 94.94,109.366 "/>
<path fill="#FFFFFF" d="M94.94,164.811c-0.246,0-0.492-0.064-0.713-0.191L47.51,137.6c-0.439-0.254-0.71-0.724-0.71-1.23V82.341
	c0-0.508,0.271-0.978,0.711-1.232c0.441-0.252,0.982-0.254,1.424,0.001l46.717,27.026c0.438,0.254,0.71,0.723,0.71,1.231v54.023
	c0,0.508-0.271,0.978-0.711,1.231C95.431,164.747,95.186,164.811,94.94,164.811z M49.645,135.549l43.872,25.373v-50.734
	L49.645,84.807V135.549z"/>
<polygon fill="#4CBD94" points="95.112,108.99 48.411,81.971 95.112,54.966 141.828,81.971 "/>
<path fill="#FFFFFF" d="M95.112,110.413c-0.246,0-0.492-0.063-0.712-0.191l-46.702-27.02c-0.439-0.254-0.71-0.724-0.71-1.231
	c0-0.508,0.271-0.977,0.71-1.23L94.4,53.736c0.442-0.255,0.984-0.254,1.424-0.001l46.717,27.005
	c0.439,0.254,0.711,0.724,0.711,1.232c0,0.507-0.271,0.977-0.71,1.231l-46.716,27.02C95.605,110.348,95.359,110.413,95.112,110.413z
	 M51.251,81.971l43.861,25.375l43.874-25.375L95.112,56.609L51.251,81.971z"/>
<polygon fill="#55AB55" points="141.639,190.221 94.94,217.241 94.94,163.217 141.639,136.198 "/>
<path fill="#FFFFFF" d="M94.94,218.663c-0.246,0-0.491-0.063-0.711-0.188c-0.44-0.254-0.711-0.726-0.711-1.232v-54.023
	c0-0.508,0.271-0.978,0.71-1.23l46.7-27.019c0.44-0.257,0.98-0.256,1.424-0.003c0.439,0.255,0.711,0.725,0.711,1.232v54.023
	c0,0.508-0.271,0.977-0.71,1.229l-46.699,27.021C95.432,218.598,95.186,218.663,94.94,218.663z M96.363,164.038v50.736
	l43.854-25.373v-50.736L96.363,164.038z"/>
<polygon fill="#77C36E" points="94.94,217.204 48.223,190.19 48.223,136.161 94.94,163.186 "/>
<path fill="#FFFFFF" d="M94.94,218.627c-0.246,0-0.492-0.063-0.713-0.192L47.51,191.42c-0.439-0.254-0.71-0.723-0.71-1.229v-54.029
	c0-0.508,0.271-0.977,0.711-1.23c0.441-0.253,0.982-0.255,1.424,0.001l46.717,27.024c0.438,0.254,0.71,0.723,0.71,1.23v54.018
	c0,0.51-0.271,0.979-0.711,1.232C95.431,218.563,95.186,218.627,94.94,218.627z M49.645,189.369l43.872,25.37v-50.732
	l-43.872-25.379V189.369z"/>
<polygon fill="#55AB55" points="188.222,163.217 141.525,190.237 141.525,136.213 188.222,109.194 "/>
<path fill="#FFFFFF" d="M141.525,191.659c-0.246,0-0.49-0.063-0.711-0.188c-0.439-0.255-0.711-0.726-0.711-1.232v-54.023
	c0-0.508,0.271-0.977,0.709-1.23l46.697-27.019c0.44-0.255,0.981-0.254,1.424-0.001c0.439,0.254,0.711,0.724,0.711,1.232v54.021
	c0,0.508-0.271,0.978-0.71,1.231l-46.696,27.021C142.017,191.595,141.771,191.659,141.525,191.659z M142.948,137.034v50.736
	l43.852-25.375v-50.734L142.948,137.034z"/>
<polygon fill="#77C36E" points="48.124,189.928 1.423,162.924 1.423,108.906 48.124,135.911 "/>
<path fill="#FFFFFF" d="M48.124,191.35c-0.246,0-0.492-0.063-0.712-0.191L0.71,164.155c-0.439-0.254-0.71-0.722-0.71-1.23v-54.018
	c0-0.508,0.271-0.978,0.711-1.232c0.441-0.253,0.982-0.254,1.424,0.001l46.702,27.003c0.439,0.255,0.709,0.722,0.709,1.23v54.019
	c0,0.508-0.271,0.979-0.711,1.231C48.615,191.288,48.371,191.35,48.124,191.35z M2.845,162.104l43.857,25.357v-50.73L2.845,111.372
	V162.104z"/>
<polygon fill="#9FD18C" points="95.014,109.281 48.312,82.278 95.014,55.254 141.724,82.278 "/>
<path fill="#FFFFFF" d="M95.014,110.704c-0.246,0-0.492-0.063-0.712-0.19L47.6,83.51c-0.439-0.253-0.71-0.723-0.71-1.231
	c0-0.507,0.271-0.977,0.71-1.231l46.702-27.024c0.441-0.255,0.982-0.255,1.425,0l46.711,27.024c0.438,0.254,0.709,0.724,0.709,1.231
	c0,0.508-0.271,0.978-0.709,1.232l-46.711,27.004C95.505,110.64,95.259,110.704,95.014,110.704z M51.153,82.278l43.861,25.36
	l43.87-25.36l-43.87-25.381L51.153,82.278z"/>
<polygon fill="#9FD18C" points="94.826,55.441 48.124,28.437 94.826,1.423 141.535,28.437 "/>
<path fill="#FFFFFF" d="M94.826,56.863c-0.246,0-0.491-0.064-0.711-0.192L47.412,29.668c-0.439-0.254-0.71-0.722-0.71-1.231
	c0-0.507,0.271-0.977,0.71-1.23L94.114,0.192c0.442-0.256,0.983-0.256,1.424,0l46.709,27.015c0.439,0.254,0.711,0.722,0.711,1.23
	c0,0.509-0.271,0.978-0.711,1.232L95.539,56.672C95.318,56.8,95.072,56.863,94.826,56.863z M50.965,28.437l43.861,25.36
	l43.867-25.36L94.826,3.066L50.965,28.437z"/>
<polygon fill="#55AB55" points="141.639,136.317 94.94,163.321 94.94,109.298 141.639,82.293 "/>
<path fill="#FFFFFF" d="M94.94,164.743c-0.246,0-0.491-0.063-0.711-0.188c-0.44-0.255-0.711-0.726-0.711-1.232v-54.023
	c0-0.508,0.271-0.977,0.71-1.23l46.7-27.005c0.44-0.256,0.98-0.254,1.424-0.001c0.439,0.254,0.711,0.724,0.711,1.232v54.024
	c0,0.508-0.271,0.977-0.71,1.229l-46.699,27.005C95.432,164.679,95.186,164.743,94.94,164.743z M96.363,110.119v50.736
	l43.854-25.358V84.759L96.363,110.119z"/>
<polygon fill="#55AB55" points="188.222,109.314 141.525,136.317 141.525,82.293 188.222,55.29 "/>
<path fill="#FFFFFF" d="M141.525,137.739c-0.246,0-0.49-0.063-0.711-0.189c-0.439-0.254-0.711-0.725-0.711-1.231V82.294
	c0-0.508,0.271-0.977,0.709-1.23l46.697-27.004c0.44-0.255,0.981-0.254,1.424-0.001c0.439,0.254,0.711,0.724,0.711,1.232v54.024
	c0,0.508-0.271,0.977-0.71,1.229l-46.696,27.004C142.017,137.676,141.771,137.739,141.525,137.739z M142.948,83.114v50.737
	l43.852-25.359V57.755L142.948,83.114z"/>
<polygon fill="#9FD18C" points="141.662,82.362 94.94,55.343 141.662,28.322 188.357,55.343 "/>
<path fill="#FFFFFF" d="M141.662,83.784c-0.245,0-0.491-0.064-0.713-0.192L94.228,56.573c-0.439-0.254-0.71-0.723-0.71-1.231
	s0.271-0.977,0.71-1.231l46.721-27.02c0.441-0.256,0.984-0.256,1.427,0l46.694,27.02c0.439,0.254,0.711,0.724,0.711,1.231
	c0,0.508-0.271,0.977-0.711,1.231l-46.694,27.019C142.154,83.72,141.908,83.784,141.662,83.784z M97.781,55.343l43.881,25.375
	l43.855-25.375l-43.855-25.377L97.781,55.343z"/>
<polygon fill="#77C36E" points="48.124,136.01 1.423,108.99 1.423,54.966 48.124,81.986 "/>
<path fill="#FFFFFF" d="M48.124,137.432c-0.246,0-0.492-0.063-0.712-0.191L0.71,110.221C0.271,109.967,0,109.498,0,108.99V54.966
	c0-0.508,0.271-0.978,0.711-1.232c0.441-0.252,0.982-0.254,1.424,0.001l46.702,27.021c0.439,0.254,0.709,0.724,0.709,1.23v54.024
	c0,0.508-0.271,0.978-0.711,1.231C48.615,137.369,48.371,137.432,48.124,137.432z M2.845,108.169l43.857,25.375V82.808L2.845,57.433
	V108.169z"/>
<polygon fill="#9FD18C" points="48.312,82.341 1.61,55.326 48.312,28.301 95.025,55.326 "/>
<path fill="#FFFFFF" d="M48.312,83.763c-0.246,0-0.492-0.064-0.712-0.191L0.898,56.557c-0.439-0.254-0.71-0.722-0.71-1.23
	c0-0.507,0.271-0.977,0.71-1.231L47.6,27.072c0.442-0.256,0.983-0.256,1.425,0l46.713,27.024c0.439,0.254,0.709,0.724,0.709,1.231
	c0,0.508-0.27,0.977-0.709,1.23L49.025,83.572C48.804,83.699,48.558,83.763,48.312,83.763z M4.451,55.326l43.861,25.371
	l43.872-25.371L48.312,29.945L4.451,55.326z"/>
</svg>
