<?xml version="1.0" encoding="utf-8"?>
<!-- Generator: Adobe Illustrator 15.0.2, SVG Export Plug-In . SVG Version: 6.00 Build 0)  -->
<!DOCTYPE svg PUBLIC "-//W3C//DTD SVG 1.1//EN" "http://www.w3.org/Graphics/SVG/1.1/DTD/svg11.dtd">
<svg version="1.1" id="Layer_1" xmlns="http://www.w3.org/2000/svg" xmlns:xlink="http://www.w3.org/1999/xlink" x="0px" y="0px"
	 width="213.181px" height="218px" viewBox="0 0 213.181 218" enable-background="new 0 0 213.181 218" xml:space="preserve">
<polygon fill="#010101" points="94.888,215.543 1.422,162.01 94.888,108.484 188.355,162.01 "/>
<path fill="#FFFFFF" d="M94.888,216.965c-0.244,0-0.487-0.066-0.707-0.189l-93.466-53.53C0.273,162.995,0,162.521,0,162.01
	c0-0.51,0.273-0.977,0.715-1.232l93.466-53.526c0.439-0.25,0.976-0.25,1.415,0l93.468,53.526c0.441,0.257,0.717,0.724,0.717,1.232
	c0,0.512-0.274,0.984-0.717,1.234l-93.468,53.531C95.376,216.898,95.133,216.965,94.888,216.965z M4.284,162.01l90.604,51.896
	l90.606-51.896l-90.606-51.887L4.284,162.01z"/>
<polygon fill="#C52329" points="188.355,162.01 94.888,215.543 94.888,108.484 188.355,54.956 "/>
<path fill="#FFFFFF" d="M94.888,216.965c-0.246,0-0.493-0.066-0.714-0.193c-0.439-0.256-0.708-0.723-0.708-1.229V108.484
	c0-0.511,0.274-0.978,0.715-1.233l93.467-53.528c0.441-0.25,0.981-0.253,1.422,0.003c0.439,0.256,0.709,0.723,0.709,1.23V162.01
	c0,0.512-0.273,0.984-0.715,1.234l-93.469,53.531C95.376,216.898,95.133,216.965,94.888,216.965z M96.313,109.313v103.773
	l90.623-51.898V57.41L96.313,109.313z"/>
<polygon fill="#E92735" points="94.888,215.543 1.422,162.01 1.422,54.956 94.888,108.484 "/>
<path fill="#FFFFFF" d="M94.888,216.965c-0.244,0-0.487-0.066-0.707-0.189l-93.466-53.53C0.273,162.995,0,162.521,0,162.01V54.956
	c0-0.508,0.27-0.975,0.708-1.23c0.44-0.256,0.98-0.253,1.421-0.003l93.466,53.528c0.441,0.256,0.715,0.723,0.715,1.233v107.059
	c0,0.506-0.27,0.973-0.708,1.229C95.382,216.898,95.134,216.965,94.888,216.965z M2.845,161.188l90.621,51.898V109.313L2.845,57.41
	V161.188z"/>
<path fill="#FFFFFF" d="M94.888,109.907c-0.244,0-0.487-0.062-0.707-0.189L0.715,56.19C0.273,55.938,0,55.468,0,54.956
	c0-0.511,0.272-0.98,0.715-1.233L94.181,0.188c0.439-0.25,0.976-0.25,1.415,0l93.468,53.535c0.442,0.253,0.717,0.723,0.717,1.233
	c0,0.512-0.274,0.981-0.717,1.234l-93.468,53.527C95.376,109.846,95.133,109.907,94.888,109.907z M4.284,54.956l90.604,51.89
	l90.607-51.89L94.888,3.061L4.284,54.956z"/>
<path fill="#FFFFFF" d="M142.517,135.385c-0.245,0-0.488-0.063-0.708-0.189c-0.439-0.254-0.709-0.722-0.709-1.229v-53.86
	c0-0.507,0.27-0.974,0.707-1.227l46.555-26.922c0.44-0.254,0.979-0.253,1.42-0.001c0.438,0.254,0.709,0.722,0.709,1.229v53.86
	c0,0.507-0.271,0.974-0.708,1.227l-46.555,26.921C143.008,135.321,142.762,135.385,142.517,135.385z M143.936,80.925v50.583
	l43.718-25.281V55.644L143.936,80.925z"/>
<polygon fill="#105075" points="142.591,80.229 96.033,107.15 96.033,53.292 142.591,26.368 "/>
<path fill="#FFFFFF" d="M96.033,108.568c-0.245,0-0.49-0.063-0.709-0.189c-0.439-0.253-0.71-0.722-0.71-1.228V53.292
	c0-0.507,0.271-0.974,0.709-1.227l46.558-26.923c0.439-0.255,0.978-0.253,1.419-0.001c0.438,0.253,0.709,0.721,0.709,1.228v53.86
	c0,0.507-0.271,0.973-0.708,1.227l-46.557,26.922C96.523,108.504,96.278,108.568,96.033,108.568z M97.451,54.11v50.582
	l43.721-25.282V28.827L97.451,54.11z"/>
<polygon points="142.818,133.832 96.246,160.77 96.246,106.909 142.818,79.973 "/>
<path fill="#FFFFFF" d="M96.246,162.188c-0.246,0-0.49-0.064-0.709-0.189c-0.44-0.254-0.71-0.722-0.71-1.229v-53.86
	c0-0.506,0.27-0.973,0.708-1.227l46.575-26.937c0.439-0.255,0.978-0.253,1.419-0.001c0.438,0.253,0.709,0.722,0.709,1.229v53.859
	c0,0.508-0.271,0.975-0.708,1.227l-46.572,26.938C96.736,162.123,96.49,162.188,96.246,162.188z M97.663,107.728v50.583
	l43.738-25.297V82.431L97.663,107.728z"/>
<polygon fill="#418EBF" points="96.074,160.956 49.498,134.02 49.498,80.154 96.074,107.098 "/>
<path fill="#FFFFFF" d="M96.074,162.375c-0.246,0-0.491-0.064-0.71-0.191l-46.575-26.938c-0.438-0.253-0.709-0.72-0.709-1.227
	V80.154c0-0.507,0.271-0.976,0.709-1.229c0.44-0.251,0.979-0.253,1.42,0.001l46.575,26.944c0.437,0.253,0.708,0.721,0.708,1.228
	v53.858c0,0.507-0.271,0.976-0.709,1.229C96.563,162.311,96.318,162.375,96.074,162.375z M50.917,133.201l43.738,25.297v-50.582
	L50.917,82.612V133.201z"/>
<polygon fill="#4BBC93" points="96.246,106.723 49.685,79.786 96.246,52.862 142.818,79.786 "/>
<polygon fill="#105075" points="142.631,187.708 96.074,214.646 96.074,160.785 142.631,133.848 "/>
<path fill="#FFFFFF" d="M96.074,216.063c-0.246,0-0.49-0.064-0.71-0.189c-0.439-0.255-0.71-0.723-0.71-1.229v-53.86
	c0-0.506,0.271-0.975,0.709-1.228l46.557-26.937c0.44-0.256,0.979-0.254,1.419-0.002c0.438,0.254,0.709,0.721,0.709,1.229v53.86
	c0,0.506-0.271,0.975-0.707,1.228l-46.558,26.936C96.564,215.999,96.318,216.063,96.074,216.063z M97.492,161.604v50.582
	l43.721-25.297v-50.581L97.492,161.604z"/>
<polygon fill="#418EBF" points="96.074,214.608 49.498,187.676 49.498,133.811 96.074,160.754 "/>
<path fill="#FFFFFF" d="M96.074,216.026c-0.246,0-0.491-0.063-0.71-0.191l-46.575-26.932c-0.438-0.254-0.709-0.721-0.709-1.228
	v-53.865c0-0.506,0.271-0.975,0.709-1.227c0.44-0.253,0.979-0.255,1.42,0.001l46.575,26.942c0.437,0.254,0.708,0.72,0.708,1.227
	v53.854c0,0.508-0.271,0.976-0.709,1.229C96.563,215.963,96.318,216.026,96.074,216.026z M50.917,186.858l43.738,25.292v-50.578
	L50.917,136.27V186.858z"/>
<polygon fill="#105075" points="189.072,160.785 142.517,187.724 142.517,133.863 189.072,106.926 "/>
<path fill="#FFFFFF" d="M142.517,189.141c-0.245,0-0.488-0.063-0.708-0.189c-0.439-0.253-0.709-0.722-0.709-1.228v-53.86
	c0-0.506,0.27-0.975,0.707-1.227l46.555-26.938c0.44-0.254,0.979-0.253,1.42-0.001c0.438,0.253,0.709,0.721,0.709,1.228v53.859
	c0,0.505-0.271,0.973-0.708,1.227l-46.555,26.938C143.008,189.077,142.762,189.141,142.517,189.141z M143.936,134.682v50.581
	l43.718-25.297v-50.58L143.936,134.682z"/>
<polygon fill="#418EBF" points="49.4,187.416 2.84,160.494 2.84,106.639 49.4,133.562 "/>
<path fill="#FFFFFF" d="M165.201,148.338c-0.246,0-0.491-0.064-0.711-0.193l-46.575-26.932c-0.438-0.254-0.709-0.721-0.709-1.227
	V66.122c0-0.507,0.271-0.975,0.71-1.228c0.439-0.252,0.979-0.254,1.42,0.001l46.574,26.942c0.438,0.253,0.709,0.72,0.709,1.227
	v53.854c0,0.508-0.271,0.977-0.709,1.229C165.689,148.273,165.445,148.338,165.201,148.338z M120.043,119.168l43.738,25.293V93.883
	L120.043,68.58V119.168z"/>
<path fill="#FFFFFF" d="M49.4,188.834c-0.245,0-0.491-0.063-0.711-0.191L2.13,161.721c-0.438-0.254-0.708-0.721-0.708-1.227v-53.855
	c0-0.507,0.27-0.975,0.709-1.228c0.44-0.252,0.979-0.254,1.419,0.001l46.56,26.921c0.438,0.254,0.707,0.721,0.707,1.228v53.854
	c0,0.506-0.269,0.974-0.709,1.229C49.889,188.771,49.645,188.834,49.4,188.834z M4.258,159.675l43.724,25.282v-50.578L4.258,109.097
	V159.675z"/>
<g>
	<g>
		<polygon points="188.901,106.815 165.32,120.455 165.32,93.184 188.901,79.545 		"/>
	</g>
	<g>
		<path fill="#FFFFFF" d="M165.32,121.172c-0.125,0-0.248-0.031-0.359-0.096c-0.223-0.128-0.359-0.365-0.359-0.621V93.184
			c0-0.257,0.137-0.493,0.358-0.621l23.582-13.639c0.224-0.129,0.495-0.129,0.719-0.001c0.223,0.128,0.358,0.365,0.358,0.622v27.271
			c0,0.257-0.136,0.493-0.358,0.622l-23.581,13.639C165.568,121.141,165.444,121.172,165.32,121.172z M166.038,93.598v25.611
			l22.146-12.808V80.79L166.038,93.598z"/>
	</g>
	<polygon fill="#FBB142" points="165.233,120.549 141.65,106.91 141.65,79.637 165.233,93.279 	"/>
	<path fill="#FFFFFF" d="M165.233,121.268c-0.124,0-0.249-0.033-0.36-0.098l-23.582-13.638c-0.222-0.129-0.359-0.365-0.359-0.622
		V79.637c0-0.256,0.138-0.494,0.36-0.623c0.224-0.127,0.495-0.127,0.718,0.001l23.583,13.643c0.222,0.128,0.357,0.365,0.357,0.621
		v27.27c0,0.257-0.136,0.494-0.358,0.623C165.48,121.234,165.357,121.268,165.233,121.268z M142.369,106.496l22.146,12.809V93.693
		l-22.146-12.812V106.496z"/>
	<g>
		<polygon fill="#4BBC93" points="165.32,93.089 141.746,79.45 165.32,65.818 188.901,79.45 		"/>
	</g>
	<g>
		<path fill="#FFFFFF" d="M165.32,93.807c-0.125,0-0.25-0.032-0.36-0.097l-23.574-13.639c-0.222-0.128-0.36-0.365-0.36-0.622
			c0-0.256,0.139-0.493,0.36-0.621l23.574-13.632c0.224-0.129,0.497-0.129,0.72,0l23.581,13.631
			c0.223,0.128,0.358,0.365,0.358,0.622c0,0.257-0.136,0.493-0.358,0.622L165.68,93.71C165.568,93.775,165.444,93.807,165.32,93.807
			z M143.179,79.45l22.142,12.81l22.146-12.81L165.32,66.648L143.179,79.45z"/>
	</g>
	<polygon fill="#EEA340" points="188.807,134.095 165.233,147.733 165.233,120.462 188.807,106.823 	"/>
	<path fill="#FFFFFF" d="M165.233,148.451c-0.124,0-0.248-0.032-0.36-0.096c-0.222-0.129-0.358-0.365-0.358-0.622v-27.271
		c0-0.255,0.137-0.493,0.358-0.621l23.574-13.639c0.223-0.129,0.495-0.128,0.718,0c0.223,0.128,0.359,0.366,0.359,0.622v27.271
		c0,0.255-0.137,0.493-0.358,0.621l-23.573,13.639C165.481,148.419,165.357,148.451,165.233,148.451z M165.95,120.877v25.611
		l22.138-12.809v-25.611L165.95,120.877z"/>
	<polygon fill="#FBB142" points="165.233,147.715 141.65,134.078 141.65,106.805 165.233,120.447 	"/>
	<path fill="#FFFFFF" d="M165.233,148.434c-0.124,0-0.249-0.033-0.36-0.098l-23.582-13.637c-0.222-0.128-0.359-0.365-0.359-0.621
		v-27.273c0-0.257,0.138-0.494,0.36-0.622c0.224-0.128,0.495-0.128,0.718,0.001l23.583,13.641c0.222,0.129,0.357,0.364,0.357,0.622
		v27.268c0,0.257-0.136,0.494-0.358,0.623C165.48,148.4,165.357,148.434,165.233,148.434z M142.369,133.664l22.146,12.807v-25.609
		l-22.146-12.812V133.664z"/>
	<polygon fill="#EEA340" points="212.32,120.462 188.748,134.102 188.748,106.831 212.32,93.192 	"/>
	<path fill="#FFFFFF" d="M188.748,134.82c-0.124,0-0.247-0.033-0.358-0.096c-0.223-0.129-0.359-0.365-0.359-0.623v-27.271
		c0-0.256,0.137-0.493,0.358-0.621l23.572-13.64c0.223-0.128,0.497-0.128,0.719,0c0.223,0.128,0.358,0.365,0.358,0.622v27.27
		c0,0.257-0.136,0.493-0.358,0.622l-23.571,13.639C188.997,134.787,188.872,134.82,188.748,134.82z M189.467,107.245v25.61
		l22.135-12.808v-25.61L189.467,107.245z"/>
	<polygon fill="#FBB142" points="141.601,133.946 118.026,120.314 118.026,93.047 141.601,106.679 	"/>
	<path fill="#FFFFFF" d="M141.601,134.664c-0.124,0-0.248-0.032-0.36-0.096l-23.573-13.632c-0.223-0.128-0.358-0.365-0.358-0.622
		V93.047c0-0.257,0.136-0.494,0.358-0.622c0.224-0.127,0.495-0.128,0.719,0.001l23.575,13.631c0.222,0.128,0.357,0.364,0.357,0.622
		v27.268c0,0.257-0.136,0.493-0.358,0.622C141.848,134.632,141.725,134.664,141.601,134.664z M118.744,119.9l22.139,12.801v-25.609
		l-22.139-12.8V119.9z"/>
	<polygon fill="#FDC56E" points="165.27,93.236 141.695,79.605 165.27,65.964 188.85,79.605 	"/>
	<path fill="#FFFFFF" d="M165.27,93.955c-0.123,0-0.248-0.033-0.359-0.097l-23.574-13.631c-0.223-0.128-0.359-0.365-0.359-0.622
		c0-0.256,0.137-0.493,0.359-0.622l23.574-13.641c0.223-0.13,0.496-0.13,0.719,0l23.58,13.641c0.221,0.129,0.357,0.365,0.357,0.622
		c0,0.257-0.137,0.494-0.357,0.622l-23.58,13.631C165.518,93.922,165.395,93.955,165.27,93.955z M143.129,79.605l22.141,12.802
		l22.146-12.802L165.27,66.792L143.129,79.605z"/>
	<polygon fill="#FDC56E" points="165.176,66.058 141.601,52.427 165.176,38.79 188.754,52.427 	"/>
	<path fill="#FFFFFF" d="M165.176,66.775c-0.125,0-0.249-0.032-0.36-0.096L141.24,53.048c-0.221-0.128-0.357-0.364-0.357-0.621
		s0.137-0.494,0.357-0.622l23.575-13.637c0.224-0.129,0.496-0.129,0.72,0l23.578,13.637c0.222,0.127,0.358,0.364,0.358,0.622
		c0,0.256-0.137,0.493-0.358,0.622L165.535,66.68C165.424,66.744,165.299,66.775,165.176,66.775z M143.035,52.427l22.141,12.801
		l22.144-12.801l-22.144-12.808L143.035,52.427z"/>
	<polygon fill="#EEA340" points="188.807,106.883 165.233,120.516 165.233,93.245 188.807,79.613 	"/>
	<path fill="#FFFFFF" d="M165.233,121.232c-0.124,0-0.248-0.031-0.36-0.096c-0.222-0.128-0.358-0.365-0.358-0.621V93.245
		c0-0.257,0.137-0.493,0.358-0.621l23.574-13.632c0.223-0.129,0.495-0.128,0.718-0.001c0.223,0.128,0.359,0.365,0.359,0.622v27.271
		c0,0.257-0.137,0.493-0.358,0.622l-23.573,13.632C165.481,121.201,165.357,121.232,165.233,121.232z M165.95,93.659v25.61
		l22.138-12.801V80.857L165.95,93.659z"/>
	<polygon fill="#EEA340" points="212.32,93.253 188.748,106.883 188.748,79.613 212.32,65.981 	"/>
	<path fill="#FFFFFF" d="M188.748,107.602c-0.124,0-0.247-0.032-0.358-0.096c-0.223-0.128-0.359-0.366-0.359-0.623V79.613
		c0-0.257,0.137-0.493,0.358-0.621l23.572-13.631c0.223-0.129,0.497-0.128,0.719,0c0.223,0.128,0.358,0.365,0.358,0.622v27.271
		c0,0.256-0.136,0.493-0.358,0.621l-23.571,13.631C188.997,107.569,188.872,107.602,188.748,107.602z M189.467,80.027v25.611
		l22.135-12.801V67.227L189.467,80.027z"/>
	<polygon fill="#FDC56E" points="188.817,79.647 165.233,66.008 188.817,52.368 212.389,66.008 	"/>
	<path fill="#FFFFFF" d="M188.817,80.365c-0.124,0-0.248-0.032-0.359-0.097l-23.585-13.639c-0.222-0.128-0.358-0.365-0.358-0.621
		c0-0.257,0.137-0.493,0.358-0.621l23.585-13.639c0.223-0.13,0.496-0.13,0.72,0l23.571,13.639c0.221,0.128,0.358,0.365,0.358,0.621
		c0,0.256-0.138,0.493-0.358,0.621l-23.571,13.639C189.065,80.333,188.942,80.365,188.817,80.365z M166.667,66.008l22.15,12.809
		l22.138-12.809l-22.138-12.81L166.667,66.008z"/>
	<polygon fill="#FBB142" points="141.601,106.729 118.026,93.089 118.026,65.818 141.601,79.458 	"/>
	<path fill="#FFFFFF" d="M141.601,107.447c-0.124,0-0.248-0.032-0.36-0.097l-23.573-13.64c-0.223-0.128-0.358-0.365-0.358-0.621
		V65.818c0-0.256,0.136-0.493,0.358-0.621c0.224-0.128,0.495-0.129,0.719,0l23.575,13.639c0.222,0.128,0.357,0.365,0.357,0.621
		v27.271c0,0.257-0.136,0.494-0.358,0.622C141.848,107.415,141.725,107.447,141.601,107.447z M118.744,92.675l22.139,12.809V79.872
		l-22.139-12.809V92.675z"/>
	<polygon fill="#FDC56E" points="141.695,79.637 118.121,66 141.695,52.358 165.275,66 	"/>
	<path fill="#FFFFFF" d="M141.695,80.354c-0.125,0-0.249-0.032-0.359-0.097l-23.574-13.636c-0.223-0.129-0.359-0.365-0.359-0.622
		c0-0.256,0.137-0.493,0.359-0.621l23.574-13.643c0.223-0.128,0.496-0.128,0.719,0l23.581,13.643
		c0.222,0.128,0.358,0.365,0.358,0.621c0,0.257-0.137,0.493-0.358,0.622l-23.581,13.636
		C141.943,80.323,141.819,80.354,141.695,80.354z M119.554,66l22.142,12.807L163.842,66l-22.146-12.813L119.554,66z"/>
</g>
<polygon fill="#98C7E4" points="95.959,53.336 49.4,26.414 95.959,-0.519 142.526,26.414 "/>
<path fill="#FFFFFF" d="M95.959,54.754c-0.245,0-0.49-0.063-0.71-0.191l-46.56-26.921c-0.437-0.254-0.707-0.72-0.707-1.228
	c0-0.505,0.27-0.974,0.707-1.227l46.56-26.933C95.69-2,96.229-2,96.67-1.745l46.567,26.933c0.438,0.253,0.708,0.72,0.708,1.227
	c0,0.507-0.27,0.975-0.708,1.229L96.67,54.564C96.449,54.69,96.205,54.754,95.959,54.754z M52.232,26.414l43.728,25.284
	l43.734-25.284L95.959,1.12L52.232,26.414z"/>
<polygon fill="#418EBF" points="49.4,133.66 2.84,106.723 2.84,52.862 49.4,79.8 "/>
<path fill="#FFFFFF" d="M49.4,135.078c-0.245,0-0.491-0.063-0.711-0.189L2.13,107.949c-0.438-0.253-0.708-0.72-0.708-1.227v-53.86
	c0-0.506,0.27-0.975,0.709-1.229c0.44-0.251,0.979-0.253,1.419,0.001l46.56,26.939c0.438,0.253,0.707,0.721,0.707,1.226v53.86
	c0,0.508-0.269,0.976-0.709,1.229C49.889,135.016,49.645,135.078,49.4,135.078z M4.258,105.904l43.724,25.297V80.619L4.258,55.321
	V105.904z"/>
<polygon fill="#98C7E4" points="49.587,80.154 3.027,53.221 49.587,26.279 96.158,53.221 "/>
<path fill="#FFFFFF" d="M49.587,81.572c-0.245,0-0.491-0.063-0.711-0.19L2.317,54.448c-0.438-0.253-0.708-0.72-0.708-1.227
	c0-0.506,0.27-0.973,0.708-1.227l46.559-26.942c0.441-0.255,0.981-0.255,1.422,0l46.571,26.942c0.438,0.254,0.707,0.721,0.707,1.227
	c0,0.507-0.27,0.974-0.707,1.227L50.298,81.381C50.078,81.508,49.832,81.572,49.587,81.572z M5.858,53.221l43.729,25.294
	l43.739-25.294L49.587,27.917L5.858,53.221z"/>
<path fill="#FFFFFF" d="M165.195,94.495c-0.245,0-0.49-0.063-0.711-0.191l-46.561-26.921c-0.437-0.253-0.706-0.72-0.706-1.227
	c0-0.506,0.27-0.974,0.706-1.227l46.561-26.933c0.441-0.255,0.98-0.255,1.421,0l46.567,26.933c0.438,0.253,0.708,0.72,0.708,1.227
	c0,0.507-0.271,0.975-0.708,1.229l-46.567,26.921C165.686,94.431,165.439,94.495,165.195,94.495z M121.467,66.155l43.729,25.283
	l43.733-25.283l-43.733-25.294L121.467,66.155z"/>
<path fill="#FFFFFF" d="M165.207,148.338c-0.244,0-0.488-0.063-0.707-0.189c-0.44-0.252-0.71-0.723-0.71-1.229V93.061
	c0-0.506,0.27-0.974,0.707-1.228l46.556-26.937c0.439-0.255,0.979-0.253,1.42-0.001c0.438,0.253,0.708,0.721,0.708,1.228v53.858
	c0,0.507-0.271,0.974-0.708,1.228l-46.555,26.938C165.699,148.275,165.453,148.338,165.207,148.338z M166.627,93.878v50.583
	l43.717-25.297V68.583L166.627,93.878z"/>
<path fill="#FFFFFF" d="M165.232,148.4c-0.244,0-0.49-0.064-0.711-0.191l-46.559-26.938c-0.439-0.254-0.708-0.721-0.708-1.228
	v-53.86c0-0.507,0.269-0.975,0.709-1.229c0.44-0.252,0.979-0.253,1.419,0.001l46.561,26.938c0.438,0.253,0.707,0.721,0.707,1.227
	v53.86c0,0.507-0.27,0.976-0.709,1.229C165.721,148.336,165.479,148.4,165.232,148.4z M120.092,119.225l43.724,25.298V93.94
	l-43.724-25.299V119.225z"/>
<polygon fill="#98C7E4" points="96.146,107.013 49.587,80.092 96.146,53.149 142.715,80.092 "/>
<path fill="#FFFFFF" d="M96.146,108.432c-0.245,0-0.49-0.064-0.71-0.191l-46.56-26.921c-0.437-0.252-0.707-0.72-0.707-1.227
	c0-0.506,0.27-0.974,0.707-1.228l46.56-26.942c0.441-0.254,0.981-0.254,1.421,0l46.568,26.942c0.438,0.254,0.707,0.722,0.707,1.228
	c0,0.507-0.27,0.975-0.707,1.228l-46.568,26.922C96.637,108.368,96.392,108.432,96.146,108.432z M52.419,80.092l43.728,25.283
	l43.736-25.283L96.146,54.788L52.419,80.092z"/>
<polygon fill="#105075" points="142.631,133.967 96.074,160.889 96.074,107.03 142.631,80.107 "/>
<path fill="#FFFFFF" d="M96.074,162.307c-0.246,0-0.49-0.063-0.71-0.189c-0.439-0.254-0.71-0.723-0.71-1.229V107.03
	c0-0.507,0.271-0.974,0.709-1.227l46.557-26.923c0.44-0.255,0.979-0.253,1.419-0.001c0.438,0.253,0.709,0.722,0.709,1.229v53.86
	c0,0.507-0.271,0.974-0.707,1.227l-46.558,26.922C96.564,162.243,96.318,162.307,96.074,162.307z M97.492,107.849v50.582
	l43.721-25.282V82.565L97.492,107.849z"/>
</svg>
