<?xml version="1.0" encoding="utf-8"?>
<!-- Generator: Adobe Illustrator 15.0.2, SVG Export Plug-In  -->
<!DOCTYPE svg PUBLIC "-//W3C//DTD SVG 1.1//EN" "http://www.w3.org/Graphics/SVG/1.1/DTD/svg11.dtd" [
	<!ENTITY ns_flows "http://ns.adobe.com/Flows/1.0/">
]>
<svg version="1.1"
	 xmlns="http://www.w3.org/2000/svg" xmlns:xlink="http://www.w3.org/1999/xlink" xmlns:a="http://ns.adobe.com/AdobeSVGViewerExtensions/3.0/"
	 x="0px" y="0px" width="191px" height="218px" viewBox="-0.815 -0.812 191 218" enable-background="new -0.815 -0.812 191 218"
	 xml:space="preserve">
<defs>
</defs>
<polygon fill="#010101" points="94.888,215.543 1.422,162.01 94.888,108.484 188.356,162.01 "/>
<path fill="#FFFFFF" d="M94.888,216.965c-0.244,0-0.487-0.066-0.707-0.189L0.715,163.245C0.273,162.995,0,162.522,0,162.01
	c0-0.51,0.273-0.977,0.715-1.232l93.466-53.527c0.439-0.25,0.976-0.25,1.415,0l93.469,53.527c0.441,0.256,0.716,0.723,0.716,1.232
	c0,0.512-0.274,0.984-0.716,1.234l-93.469,53.531C95.376,216.899,95.133,216.965,94.888,216.965z M4.284,162.01l90.604,51.895
	l90.606-51.895l-90.606-51.887L4.284,162.01z"/>
<polygon fill="#6f6f6f" points="188.356,162.01 94.888,215.543 94.888,108.484 188.356,54.956 "/>
<path fill="#FFFFFF" d="M94.888,216.965c-0.246,0-0.493-0.066-0.714-0.193c-0.439-0.256-0.708-0.723-0.708-1.229V108.484
	c0-0.511,0.274-0.978,0.715-1.233l93.468-53.528c0.441-0.25,0.981-0.253,1.422,0.003c0.439,0.256,0.709,0.723,0.709,1.23V162.01
	c0,0.512-0.274,0.984-0.716,1.234l-93.469,53.531C95.376,216.899,95.133,216.965,94.888,216.965z M96.312,109.313v103.773
	l90.623-51.898V57.41L96.312,109.313z"/>
<polygon fill="#828282" points="94.888,215.543 1.422,162.01 1.422,54.956 94.888,108.484 "/>
<path fill="#FFFFFF" d="M94.888,216.965c-0.244,0-0.487-0.066-0.707-0.189L0.715,163.245C0.273,162.995,0,162.522,0,162.01V54.956
	c0-0.508,0.27-0.975,0.708-1.23c0.44-0.256,0.98-0.253,1.421-0.003l93.466,53.528c0.441,0.256,0.716,0.723,0.716,1.233v107.059
	c0,0.506-0.27,0.973-0.709,1.229C95.382,216.899,95.134,216.965,94.888,216.965z M2.845,161.188l90.621,51.898V109.313L2.845,57.41
	V161.188z"/>
<polygon fill="#959595" points="94.888,108.484 1.422,54.956 94.888,1.422 188.356,54.956 "/>
<path fill="#FFFFFF" d="M94.888,109.907c-0.244,0-0.487-0.061-0.707-0.189L0.715,56.19C0.273,55.938,0,55.468,0,54.956
	c0-0.511,0.272-0.98,0.715-1.233L94.181,0.188c0.439-0.25,0.976-0.25,1.415,0l93.469,53.535c0.442,0.253,0.716,0.723,0.716,1.233
	c0,0.512-0.274,0.981-0.716,1.234l-93.469,53.527C95.376,109.846,95.133,109.907,94.888,109.907z M4.284,54.956l90.604,51.89
	l90.607-51.89L94.888,3.061L4.284,54.956z"/>
</svg>
